<?xml version="1.0" encoding="utf-8"?>
<!-- Generator: Adobe Illustrator 22.0.1, SVG Export Plug-In . SVG Version: 6.00 Build 0)  -->
<svg version="1.1" id="Layer_1" xmlns="http://www.w3.org/2000/svg" xmlns:xlink="http://www.w3.org/1999/xlink" x="0px" y="0px"
	 viewBox="0 0 350 350" style="enable-background:new 0 0 350 350;" xml:space="preserve">
<style type="text/css">
	.st0{fill:#FFF8DB;}
	.st1{clip-path:url(#SVGID_2_);fill:#FFF8DB;}
	.st2{clip-path:url(#SVGID_2_);}
	.st3{clip-path:url(#SVGID_4_);fill:#FFF8DB;}
	.st4{clip-path:url(#SVGID_4_);}
</style>
<g>
	<path class="st0" d="M108,30.7l-5.2-11.2C76.3,31.7,53.2,50.8,36,74.5l10,7.3C62,59.8,83.4,42.1,108,30.7z"/>
	<path class="st0" d="M15.9,175c0-27.1,6.9-53.9,20.1-77.4l-10.8-6C11,116.9,3.5,145.8,3.5,175v0.3h12.4V175z"/>
	<path class="st0" d="M345.3,154.2c-3.5-29-14.5-56.9-31.9-80.5l-10,7.3c16.1,21.9,26.3,47.7,29.6,74.7L345.3,154.2z"/>
	<path class="st0" d="M4.7,195.5c3.5,29,14.4,56.9,31.7,80.6l10-7.3c-16-21.9-26.2-47.8-29.4-74.7L4.7,195.5z"/>
	<path class="st0" d="M291.5,66.6l9.1-8.5c-20-21.5-45.3-37.5-73-46.5l-3.8,11.8C249.5,31.7,272.9,46.7,291.5,66.6z"/>
	<path class="st0" d="M175,15.9c10.3,0,20.6,1,30.5,2.9l2.4-12.2c-10.8-2.1-21.8-3.2-32.9-3.2c-18.3,0-36.3,2.9-53.5,8.5l3.9,11.8
		C141.3,18.5,158,15.9,175,15.9z"/>
	<path class="st0" d="M175,334.1C175,334.1,175,334.1,175,334.1c-10.4,0-20.8-1-30.9-3l-2.4,12.2c10.9,2.1,22.1,3.2,33.3,3.2
		c0,0,0,0,0,0c18.1,0,36-2.8,53.1-8.4l-3.8-11.8C208.4,331.5,191.9,334.1,175,334.1z"/>
	<path class="st0" d="M346.5,174.3h-12.4l0,0.7c0,27.2-7,54.1-20.2,77.7l10.8,6.1c14.3-25.5,21.8-54.4,21.8-83.9L346.5,174.3z"/>
	<path class="st0" d="M241.7,319.5l5.2,11.3c26.5-12.3,49.6-31.3,66.9-55l-10-7.3C287.8,290.5,266.3,308.1,241.7,319.5z"/>
	<path class="st0" d="M58.3,283.2l-9.1,8.4c20,21.5,45.2,37.6,73,46.6l3.8-11.8C100.2,318.1,76.8,303.1,58.3,283.2z"/>
</g>
<g>
	<g>
		<defs>
			
				<rect id="SVGID_1_" x="19" y="123.2" transform="matrix(4.895636e-03 -1 1 4.895636e-03 -7.9708 342.2943)" width="297.9" height="104"/>
		</defs>
		<clipPath id="SVGID_2_">
			<use xlink:href="#SVGID_1_"  style="overflow:visible;"/>
		</clipPath>
		<path class="st1" d="M186.6,134.9c2.2-1.8,4.8-2.6,7.3-3.7c0,0,13.3,4.1,19.3,14.9c6,10.8,7.5,18.4,4,28.6
			c-3.4,10.2-4.2,10.8-4.3,13.3c-0.1,2.6,2.5,3.8,2.5,3.8l-0.7,1.5c0,0-4-0.2-5.5,0.5c-1.5,0.8-1.5,3.1-1.5,3.1s-2.4-1.2-1.7-6.3
			c0.4-2.8,3.3-8.4,5.2-15c4.7-15.4-3.9-30.1-15.3-36.9C188.1,134.2,186.6,134.9,186.6,134.9L186.6,134.9z"/>
		<path class="st2" d="M186.6,134.9"/>
		<path class="st1" d="M204.5,199.9c-8.4,4.8-9.2,10.7-5.8,23.9c1.5,5.8,6,9.5,11,10.2c0,0-2.1,3.8-2.1,6.4c0,2.7,5.3,13.5,4.5,24.5
			c-0.8,11-3.9,21.1-3.9,21.1s11.5-8.7,11.3-23.1c-0.2-14.4-4.8-26.2-5-28.2c-0.1-1.9,0.5-3.8,2-4.9l-1.2-1.6c0,0-4.5,1.7-6.7-0.8
			C200.4,218.2,201.7,209.8,204.5,199.9L204.5,199.9z"/>
		<path class="st2" d="M204.5,199.9"/>
		<path class="st1" d="M158,249.5l0,9.4l3.3,9.7c0,0,0.2,27.6,0.2,28.4c0,0.8,2.3,2.6,2.3,2.6l0.4,3.1l1.6,0l-0.2,16.5l-1,0l0,4.8
			l5.7,0l0-4.8l-1,0l0.1-16l1.5,0l0-2.9c0,0,8.6,0.5,15.4,0.1c6.8-0.4,14.3-5.4,14.3-5.4c-10.7,2.2-21.8,1.4-32.7,0.3l0.1-26.4
			l3.8-10.3l0.4-8.4L158,249.5z"/>
		<path class="st2" d="M158,249.5"/>
		<path class="st1" d="M135.2,217.1l3.8,1.4c0,0-3.2,5.8-5.9,5.8c-2.7,0-4.2-0.3-4.2-0.3l-0.9,1.2c0,0,1.8,1.3,1.8,4
			c0,2.7-11.6,17.1-9.8,31.5c1.7,14.4,18.9,30.8,18.9,30.8s-21.9-7.9-23.2-30.2c-1-17.3,7.6-28.1,10.9-31.6c1.2-1.3-2.2-5-2.2-5
			l2.3-3.8L135.2,217.1z"/>
		<path class="st2" d="M135.2,217.1"/>
	</g>
	<path class="st0" d="M182.7,207.5c-1.2,0-2.4,0.4-3.2,1.3c-0.2,0.3-0.4,0.6-0.6,0.9c-0.3,0.6-0.3,1.4-0.3,2.1
		c0.1,0.8,0.6,1.6,1.4,1.9c0.8,0.3,1.7,0.2,2.3-0.4c0.8-0.6,1.1-1.8,0.7-2.7c-0.1-0.3-0.2-0.5-0.4-0.7c0.6,0,1.3,0.3,1.6,0.9
		c0.5,0.8,0.5,1.8,0.5,2.7c0,1.8-0.2,3.7-0.3,5.5c-0.3,3.6-0.5,7.3-0.3,10.9c0.2,1.9,0.5,3.8,1.2,5.6c0.5,1.2,1.4,2.3,2.6,2.8
		c0.9,0.4,1.9,0.6,2.9,0.5c1.6-0.2,3.2-1.2,3.9-2.7c0.4-0.9,0.5-1.9,0.1-2.8c-0.4-0.9-1.5-1.4-2.4-1.2c-1,0.2-1.8,1.1-1.8,2.1
		c-0.1,0.6,0.1,1.2,0.7,1.6c0.1,0.1,0.3,0.2,0.4,0.2c-0.3,0.4-0.9,0.6-1.4,0.6c-0.8,0-1.7-0.3-2.2-1.1c-0.2-0.5-0.2-1.2-0.3-1.7
		c-0.2-2.7-0.2-5.4-0.2-8.1c0-3.4,0.1-6.9,0.2-10.3c0-1.9-0.3-3.9-1.2-5.6c-0.6-1.1-1.5-2-2.7-2.2
		C183.4,207.5,183.1,207.5,182.7,207.5L182.7,207.5z"/>
	<path d="M182.7,207.5"/>
	<path class="st0" d="M151.5,205.2c-1.4,0-2.6,0.8-3.4,1.9c-1,1.4-1.5,3.2-1.9,4.9c-0.3,1.9-0.5,3.7-0.7,5.6
		c-0.5,4.2-1.1,8.4-1.9,12.6c-0.2,0.7-0.3,1.4-0.6,2c-0.4,0.6-1.3,0.9-2,0.9c-0.5,0-1-0.2-1.4-0.5c-0.1-0.1-0.2-0.2-0.2-0.3
		c0.6-0.2,1.1-0.6,1.2-1.2c0.3-1.2-0.4-2.5-1.5-2.9c-1-0.3-2.1,0.2-2.6,1.1c-0.5,0.9-0.4,2.1,0,3c0.6,1.4,1.9,2.4,3.4,2.8
		c1,0.2,2,0.2,3-0.1c0.9-0.3,1.6-0.8,2.2-1.4c1.1-1.2,1.7-2.8,2.2-4.3c1-3.2,1.3-6.5,1.7-9.8c0.3-3,0.4-6.1,0.8-9.1
		c0.1-0.9,0.5-1.8,1.2-2.3c0.4-0.3,0.8-0.4,1.3-0.3c-0.9,0.8-1.1,2.3-0.4,3.3c0.5,0.7,1.6,1.1,2.5,0.8c0.9-0.3,1.6-1.2,1.6-2.1
		c0.1-0.7,0.2-1.4-0.2-2c-0.2-0.4-0.4-0.9-0.8-1.2c-0.8-0.8-2-1.2-3.1-1.3C151.7,205.2,151.6,205.2,151.5,205.2L151.5,205.2z"/>
	<path d="M151.5,205.2"/>
	<path class="st0" d="M138,148.2c-4.3,10.4-3.9,21.9-3.2,32.9c0.1,1.7-1.4,2.7-2.4,3.9c0.7,1.4,1.4,2.7,2.1,4.1
		c2.2-0.2,4.6,0.2,5.8,2.2c1.5,2.1,0.8,4.8,1.5,7.1c0.8,1.1,1.8-0.3,1.8-1.2c0.3-3.3,1.3-7.3-0.9-10.2c-1.2-1.5-3-2.6-4.6-3.3
		c2.1-4.5,0.5-9.6,0.9-14.4c-0.1-7.1,0.1-14.5,3.6-20.9c5.3-9.4,13.2-14,21.5-15.9C153.2,131.4,142,138.5,138,148.2L138,148.2z"/>
	<path class="st0" d="M138,148.2"/>
	<g>
		<defs>
			
				<rect id="SVGID_3_" x="19" y="123.2" transform="matrix(4.895636e-03 -1 1 4.895636e-03 -7.9708 342.2943)" width="297.9" height="104"/>
		</defs>
		<clipPath id="SVGID_4_">
			<use xlink:href="#SVGID_3_"  style="overflow:visible;"/>
		</clipPath>
		<path class="st3" d="M162.3,198.5c-0.3,0-0.5,0.1-0.6,0.4c-1,7.9-2.2,15.8-3.1,23.8c-0.3,9.6-0.2,19.2-0.2,28.7
			c0.4,1,1.8,0.9,2.1,0.1c0-9.2-0.2-18.4,0-27.6c0.8-8.5,2.1-16.9,3.3-25.4C163.5,198.6,162.8,198.4,162.3,198.5L162.3,198.5z"/>
		<path class="st3" d="M166,198.5c-0.3,0-0.5,0.1-0.6,0.4c-1,7.9-2.2,15.8-3.1,23.8c-0.3,9.6-0.2,19.2-0.2,28.7
			c0.4,1,1.8,0.9,2.1,0.1c0-9.2-0.2-18.4,0.1-27.6c0.8-8.5,2.1-16.9,3.3-25.4C167.2,198.6,166.5,198.5,166,198.5L166,198.5z"/>
		<path class="st3" d="M169.8,198.5c-0.3,0-0.5,0.1-0.6,0.4c-1,7.9-2.2,15.8-3.1,23.8c-0.3,9.6-0.2,19.2-0.2,28.7
			c0.4,1,1.8,0.9,2.1,0.1c0-9.2-0.2-18.4,0-27.6c0.8-8.5,2.1-16.9,3.3-25.4C170.9,198.6,170.3,198.5,169.8,198.5L169.8,198.5z"/>
		<path class="st3" d="M173.5,198.5c-0.3,0-0.5,0.1-0.6,0.4c-1,7.9-2.2,15.8-3.1,23.8c-0.3,9.6-0.2,19.2-0.2,28.7
			c0.4,1,1.8,0.9,2.1,0.1c0-9.2-0.2-18.4,0-27.6c0.8-8.5,2.1-16.9,3.3-25.4C174.7,198.7,174,198.5,173.5,198.5L173.5,198.5z"/>
		<path class="st4" d="M173.5,198.5"/>
		<path class="st3" d="M159.7,200.5l16.8,1.2c0,0,7-85.9,8-95.1c1-9.2,4-34,4-34s4.2-2.8,4.3-3.6c0.1-0.7,0.8-10.6,1.9-16.7
			c1.1-6,2.1-12.9,2.1-12.9s-0.3-11-1-12.2c-0.6-1.2-6-1.2-6.7-0.7c-0.6,0.5-3.1,6.3-3.1,6.3l-2.1,0c0,0-0.8-0.6-0.9,1
			c-0.1,1.7,0,2.3,0.5,2.3l0.6,0l-0.2,1.4l2.1,0.2l0,3l1.7-0.1c0,0,0.7,1-0.2,1.9c-0.9,0.9-4.5,10.2-5.6,16.7
			c-1.1,6.4-2.1,8.8-1.8,9.4c0.3,0.6,0.6,0.6,0.6,0.6s-8.8,60.9-9.8,67.8c-1,6.9-5.5,31.8-6.1,37.5
			C164.1,180.4,159.7,200.5,159.7,200.5L159.7,200.5z"/>
		<path class="st4" d="M159.7,200.5"/>
	</g>
	
		<rect x="194.8" y="40.6" transform="matrix(4.895636e-03 -1 1 4.895636e-03 148.8859 242.374)" class="st0" width="2.8" height="11.6"/>
	
		<rect x="193.2" y="52.1" transform="matrix(4.895636e-03 -1 1 4.895636e-03 135.8085 252.2576)" class="st0" width="2.8" height="11.6"/>
	
		<rect x="174.8" y="56.4" transform="matrix(4.895636e-03 -1 1 4.895636e-03 113.1607 238.081)" class="st0" width="2.8" height="11.6"/>
	
		<rect x="177.9" y="43.4" transform="matrix(4.895636e-03 -1 1 4.895636e-03 129.2596 228.2247)" class="st0" width="2.8" height="11.6"/>
	<path class="st0" d="M199.2,42.7l0,7.1l3.9,0c2,0,3.6-1.6,3.6-3.6c0-2-1.6-3.6-3.6-3.6L199.2,42.7z"/>
	<path d="M199.2,42.7"/>
	<path class="st0" d="M196.9,54.3l0,7.1l3.9,0c2,0,3.6-1.6,3.6-3.6c0-2-1.6-3.6-3.5-3.6L196.9,54.3z"/>
	<path d="M196.9,54.3"/>
	<path class="st0" d="M172.4,58.9l0,6.5l-3.9,0c-2,0-3.6-1.5-3.6-3.3c0-1.8,1.6-3.2,3.6-3.2L172.4,58.9z"/>
	<path class="st0" d="M172.4,58.9"/>
	<path class="st0" d="M175.7,45.8l0,6.5l-3.9,0c-2,0-3.6-1.5-3.6-3.3c0-1.8,1.6-3.2,3.6-3.2L175.7,45.8z"/>
	<path d="M175.7,45.8"/>
</g>
</svg>
