<?xml version="1.0" encoding="utf-8"?>
<!-- Generator: Adobe Illustrator 22.0.1, SVG Export Plug-In . SVG Version: 6.00 Build 0)  -->
<svg version="1.1" id="Layer_1" xmlns="http://www.w3.org/2000/svg" xmlns:xlink="http://www.w3.org/1999/xlink" x="0px" y="0px"
	 viewBox="0 0 350 350" style="enable-background:new 0 0 350 350;" xml:space="preserve">
<style type="text/css">
	.st0{fill:#FFF8DB;}
	.st1{clip-path:url(#SVGID_2_);fill:#FFF8DB;}
	.st2{clip-path:url(#SVGID_2_);}
	.st3{clip-path:url(#SVGID_4_);fill:#FFF8DB;}
	.st4{clip-path:url(#SVGID_4_);}
</style>
<g>
	<path class="st0" d="M177.7,27.9C177.7,27.9,177.7,27.9,177.7,27.9c10.3,0,20.6,1,30.6,2.9l2.4-12.2c-10.8-2.1-21.8-3.2-32.9-3.2
		c0,0,0,0,0,0c-18.3,0-36.3,2.9-53.5,8.5l3.9,11.8C144.1,30.6,160.8,27.9,177.7,27.9z"/>
	<path class="st0" d="M316.1,85.7l-10,7.3c16.1,21.9,26.3,47.7,29.6,74.7l12.3-1.5C344.5,137.1,333.5,109.3,316.1,85.7z"/>
	<path class="st0" d="M230.2,23.7l-3.8,11.8c25.8,8.3,49.2,23.2,67.8,43.1l9.1-8.5C283.3,48.7,258,32.6,230.2,23.7z"/>
</g>
<g>
	<g>
		<defs>
			
				<rect id="SVGID_1_" x="19" y="135.2" transform="matrix(4.895636e-03 -1 1 4.895636e-03 -19.9707 354.2356)" width="297.9" height="104"/>
		</defs>
		<clipPath id="SVGID_2_">
			<use xlink:href="#SVGID_1_"  style="overflow:visible;"/>
		</clipPath>
		<path class="st1" d="M186.6,146.9c2.2-1.8,4.8-2.6,7.3-3.7c0,0,13.3,4.1,19.3,14.9c6,10.8,7.5,18.4,4,28.6
			c-3.4,10.2-4.2,10.8-4.3,13.3c-0.1,2.6,2.5,3.8,2.5,3.8l-0.7,1.5c0,0-4-0.2-5.5,0.5c-1.5,0.8-1.5,3.1-1.5,3.1s-2.4-1.2-1.7-6.3
			c0.4-2.8,3.3-8.4,5.2-15c4.7-15.4-3.9-30.1-15.3-36.9C188.1,146.2,186.6,146.9,186.6,146.9L186.6,146.9z"/>
		<path class="st2" d="M186.6,146.9"/>
		<path class="st1" d="M204.5,211.9c-8.4,4.8-9.2,10.7-5.8,23.9c1.5,5.8,6,9.5,11,10.2c0,0-2.1,3.8-2.1,6.4c0,2.7,5.3,13.5,4.5,24.5
			c-0.8,11-3.9,21.1-3.9,21.1s11.5-8.7,11.3-23.1c-0.2-14.4-4.8-26.2-5-28.2c-0.1-1.9,0.5-3.8,2-4.9l-1.2-1.6c0,0-4.5,1.7-6.7-0.8
			C200.4,230.2,201.7,221.8,204.5,211.9L204.5,211.9z"/>
		<path class="st2" d="M204.5,211.9"/>
		<path class="st1" d="M158,261.5l0,9.4l3.3,9.7c0,0,0.2,27.6,0.2,28.4c0,0.8,2.3,2.6,2.3,2.6l0.4,3.1l1.6,0l-0.2,16.5l-1,0l0,4.8
			l5.7,0l0-4.8l-1,0l0.1-16l1.5,0l0-2.9c0,0,8.6,0.5,15.4,0.1c6.8-0.4,14.3-5.4,14.3-5.4c-10.7,2.2-21.8,1.4-32.7,0.3l0.1-26.4
			l3.8-10.3l0.4-8.4L158,261.5z"/>
		<path class="st2" d="M158,261.5"/>
		<path class="st1" d="M135.2,229.1l3.8,1.4c0,0-3.2,5.8-5.9,5.8c-2.7,0-4.2-0.3-4.2-0.3l-0.9,1.2c0,0,1.8,1.3,1.8,4
			c0,2.7-11.6,17.1-9.8,31.5c1.7,14.4,18.9,30.8,18.9,30.8s-21.9-7.9-23.2-30.2c-1-17.3,7.6-28.1,10.9-31.6c1.2-1.3-2.2-5-2.2-5
			l2.3-3.8L135.2,229.1z"/>
		<path class="st2" d="M135.2,229.1"/>
	</g>
	<path class="st0" d="M182.7,219.5c-1.2,0-2.4,0.4-3.2,1.3c-0.2,0.3-0.4,0.6-0.6,0.9c-0.3,0.6-0.3,1.4-0.3,2.1
		c0.1,0.8,0.6,1.6,1.4,1.9c0.8,0.3,1.7,0.2,2.3-0.4c0.8-0.6,1.1-1.8,0.7-2.7c-0.1-0.3-0.2-0.5-0.4-0.7c0.6,0,1.3,0.3,1.6,0.9
		c0.5,0.8,0.5,1.8,0.5,2.7c0,1.8-0.2,3.7-0.3,5.5c-0.3,3.6-0.5,7.3-0.3,10.9c0.2,1.9,0.5,3.8,1.2,5.6c0.5,1.2,1.4,2.3,2.6,2.8
		c0.9,0.4,1.9,0.6,2.9,0.5c1.6-0.2,3.2-1.2,3.9-2.7c0.4-0.9,0.5-1.9,0.1-2.8c-0.4-0.9-1.5-1.4-2.4-1.2c-1,0.2-1.8,1.1-1.8,2.1
		c-0.1,0.6,0.1,1.2,0.7,1.6c0.1,0.1,0.3,0.2,0.4,0.2c-0.3,0.4-0.9,0.6-1.4,0.6c-0.8,0-1.7-0.3-2.2-1.1c-0.2-0.5-0.2-1.2-0.3-1.7
		c-0.2-2.7-0.2-5.4-0.2-8.1c0-3.4,0.1-6.9,0.2-10.3c0-1.9-0.3-3.9-1.2-5.6c-0.6-1.1-1.5-2-2.7-2.2
		C183.4,219.5,183.1,219.5,182.7,219.5L182.7,219.5z"/>
	<path d="M182.7,219.5"/>
	<path class="st0" d="M151.5,217.2c-1.4,0-2.6,0.8-3.4,1.9c-1,1.4-1.5,3.2-1.9,4.9c-0.3,1.9-0.5,3.7-0.7,5.6
		c-0.5,4.2-1.1,8.4-1.9,12.6c-0.2,0.7-0.3,1.4-0.6,2c-0.4,0.6-1.3,0.9-2,0.9c-0.5,0-1-0.2-1.4-0.5c-0.1-0.1-0.2-0.2-0.2-0.3
		c0.6-0.2,1.1-0.6,1.2-1.2c0.3-1.2-0.4-2.5-1.5-2.9c-1-0.3-2.1,0.2-2.6,1.1c-0.5,0.9-0.4,2.1,0,3c0.6,1.4,1.9,2.4,3.4,2.8
		c1,0.2,2,0.2,3-0.1c0.9-0.3,1.6-0.8,2.2-1.4c1.1-1.2,1.7-2.8,2.2-4.3c1-3.2,1.3-6.5,1.7-9.8c0.3-3,0.4-6.1,0.8-9.1
		c0.1-0.9,0.5-1.8,1.2-2.3c0.4-0.3,0.8-0.4,1.3-0.3c-0.9,0.8-1.1,2.3-0.4,3.3c0.5,0.7,1.6,1.1,2.5,0.8c0.9-0.3,1.6-1.2,1.6-2.1
		c0.1-0.7,0.2-1.4-0.2-2c-0.2-0.4-0.4-0.9-0.8-1.2c-0.8-0.8-2-1.2-3.1-1.3C151.7,217.2,151.6,217.2,151.5,217.2L151.5,217.2z"/>
	<path d="M151.5,217.2"/>
	<path class="st0" d="M138,160.2c-4.3,10.4-3.9,21.9-3.2,32.9c0.1,1.7-1.4,2.7-2.4,3.9c0.7,1.4,1.4,2.7,2.1,4.1
		c2.2-0.2,4.6,0.2,5.8,2.2c1.5,2.1,0.8,4.8,1.5,7.1c0.8,1.1,1.8-0.3,1.8-1.2c0.3-3.3,1.3-7.3-0.9-10.2c-1.2-1.5-3-2.6-4.6-3.3
		c2.1-4.5,0.5-9.6,0.9-14.4c-0.1-7.1,0.1-14.5,3.6-20.9c5.3-9.4,13.2-14,21.5-15.9C153.2,143.4,142,150.5,138,160.2L138,160.2z"/>
	<path class="st0" d="M138,160.2"/>
	<g>
		<defs>
			
				<rect id="SVGID_3_" x="19" y="135.2" transform="matrix(4.895636e-03 -1 1 4.895636e-03 -19.9707 354.2356)" width="297.9" height="104"/>
		</defs>
		<clipPath id="SVGID_4_">
			<use xlink:href="#SVGID_3_"  style="overflow:visible;"/>
		</clipPath>
		<path class="st3" d="M162.3,210.5c-0.3,0-0.5,0.1-0.6,0.4c-1,7.9-2.2,15.8-3.1,23.8c-0.3,9.6-0.2,19.2-0.2,28.7
			c0.4,1,1.8,0.9,2.1,0.1c0-9.2-0.2-18.4,0-27.6c0.8-8.5,2.1-16.9,3.3-25.4C163.5,210.6,162.8,210.4,162.3,210.5L162.3,210.5z"/>
		<path class="st3" d="M166,210.5c-0.3,0-0.5,0.1-0.6,0.4c-1,7.9-2.2,15.8-3.1,23.8c-0.3,9.6-0.2,19.2-0.2,28.7
			c0.4,1,1.8,0.9,2.1,0.1c0-9.2-0.2-18.4,0.1-27.6c0.8-8.5,2.1-16.9,3.3-25.4C167.2,210.6,166.5,210.5,166,210.5L166,210.5z"/>
		<path class="st3" d="M169.8,210.5c-0.3,0-0.5,0.1-0.6,0.4c-1,7.9-2.2,15.8-3.1,23.8c-0.3,9.6-0.2,19.2-0.2,28.7
			c0.4,1,1.8,0.9,2.1,0.1c0-9.2-0.2-18.4,0-27.6c0.8-8.5,2.1-16.9,3.3-25.4C170.9,210.6,170.3,210.5,169.8,210.5L169.8,210.5z"/>
		<path class="st3" d="M173.5,210.5c-0.3,0-0.5,0.1-0.6,0.4c-1,7.9-2.2,15.8-3.1,23.8c-0.3,9.6-0.2,19.2-0.2,28.7
			c0.4,1,1.8,0.9,2.1,0.1c0-9.2-0.2-18.4,0-27.6c0.8-8.5,2.1-16.9,3.3-25.4C174.7,210.7,174,210.5,173.5,210.5L173.5,210.5z"/>
		<path class="st4" d="M173.5,210.5"/>
		<path class="st3" d="M159.7,212.5l16.8,1.2c0,0,7-85.9,8-95.1c1-9.2,4-34,4-34s4.2-2.8,4.3-3.6c0.1-0.7,0.8-10.6,1.9-16.7
			c1.1-6,2.1-12.9,2.1-12.9s-0.3-11-1-12.2c-0.6-1.2-6-1.2-6.7-0.7c-0.6,0.5-3.1,6.3-3.1,6.3l-2.1,0c0,0-0.8-0.6-0.9,1
			c-0.1,1.7,0,2.3,0.5,2.3l0.6,0l-0.2,1.4l2.1,0.2l0,3l1.7-0.1c0,0,0.7,1-0.2,1.9c-0.9,0.9-4.5,10.2-5.6,16.7
			c-1.1,6.4-2.1,8.8-1.8,9.4c0.3,0.6,0.6,0.6,0.6,0.6s-8.8,60.9-9.8,67.8c-1,6.9-5.5,31.8-6.1,37.5
			C164.1,192.4,159.7,212.5,159.7,212.5L159.7,212.5z"/>
		<path class="st4" d="M159.7,212.5"/>
	</g>
	
		<rect x="194.8" y="52.6" transform="matrix(4.895636e-03 -1 1 4.895636e-03 136.8861 254.3152)" class="st0" width="2.8" height="11.6"/>
	
		<rect x="193.2" y="64.1" transform="matrix(4.895636e-03 -1 1 4.895636e-03 123.8086 264.1989)" class="st0" width="2.8" height="11.6"/>
	
		<rect x="174.8" y="68.4" transform="matrix(4.895636e-03 -1 1 4.895636e-03 101.1608 250.0223)" class="st0" width="2.8" height="11.6"/>
	
		<rect x="177.9" y="55.4" transform="matrix(4.895636e-03 -1 1 4.895636e-03 117.2597 240.1659)" class="st0" width="2.8" height="11.6"/>
	<path class="st0" d="M199.2,54.7l0,7.1l3.9,0c2,0,3.6-1.6,3.6-3.6c0-2-1.6-3.6-3.6-3.6L199.2,54.7z"/>
	<path d="M199.2,54.7"/>
	<path class="st0" d="M196.9,66.3l0,7.1l3.9,0c2,0,3.6-1.6,3.6-3.6c0-2-1.6-3.6-3.5-3.6L196.9,66.3z"/>
	<path d="M196.9,66.3"/>
	<path class="st0" d="M172.4,70.9l0,6.5l-3.9,0c-2,0-3.6-1.5-3.6-3.3c0-1.8,1.6-3.2,3.6-3.2L172.4,70.9z"/>
	<path class="st0" d="M172.4,70.9"/>
	<path class="st0" d="M175.7,57.8l0,6.5l-3.9,0c-2,0-3.6-1.5-3.6-3.3c0-1.8,1.6-3.2,3.6-3.2L175.7,57.8z"/>
	<path d="M175.7,57.8"/>
</g>
</svg>
