<?xml version="1.0" encoding="utf-8"?>
<!-- Generator: Adobe Illustrator 22.0.1, SVG Export Plug-In . SVG Version: 6.00 Build 0)  -->
<svg version="1.1" id="Layer_1" xmlns="http://www.w3.org/2000/svg" xmlns:xlink="http://www.w3.org/1999/xlink" x="0px" y="0px"
	 viewBox="0 0 350 350" style="enable-background:new 0 0 350 350;" xml:space="preserve">
<style type="text/css">
	.st0{fill:#FFF8DB;}
</style>
<g>
	<path class="st0" d="M188.3,231.6l0-16.7v-6.2c0-2.4-1.9-4.4-4.4-4.4c-2.4,0-4.4,2-4.4,4.4v24.8c0,1.1,0.5,2.3,1.3,3.1l6.2,6.2
		c1.7,1.7,4.5,1.7,6.2,0c1.7-1.7,1.7-4.5,0-6.2L188.3,231.6z"/>
	<path class="st0" d="M171.6,204.3c-2.4,0-4.4,2-4.4,4.4v6.2v16.7l-4.9,4.9c-1.7,1.7-1.7,4.5,0,6.2c1.7,1.7,4.5,1.7,6.2,0l6.2-6.2
		c0.8-0.8,1.3-1.9,1.3-3.1v-24.8C176,206.2,174,204.3,171.6,204.3z"/>
	<path class="st0" d="M226,224.8c-1.2-0.3-2.6,0-3.6,0.7c-5.2,3.7-12.3,3.1-16.8-1.4c-5.1-5.1-5.1-13.4,0-18.6
		c3.5-3.5,8.7-4.7,13.5-3.1c1.2,0.4,2.5,0.3,3.6-0.4c1.1-0.7,1.9-1.7,2.1-3c3.1-15.8-1.8-31.9-13.1-43.1
		c-5.4-5.4-11.5-10.7-19.3-13.1l-2.6-44.4l3.4,0c1.2,0,2.3-0.5,3.1-1.3c0.8-0.8,1.3-1.9,1.3-3.1c0-2.4-2-4.4-4.4-4.4h-3.9l-0.2-3.6
		h4.1c1.2,0,2.3-0.5,3.1-1.3c0.8-0.8,1.3-1.9,1.3-3.1c0-2.4-1.9-4.4-4.4-4.4h-4.6l-0.2-3.4c6.1-7.5,2.4-14.6,0.1-19
		c-0.7-1.3-1.8-3.4-1.5-4.2c1.2-1.2,1.6-3.1,0.9-4.7c-0.7-1.7-2.3-2.7-4.1-2.7h-12.4c-1.8,0-3.4,1.1-4,2.7c-0.7,1.6-0.3,3.5,1,4.8
		c0.5,0.5,0.3,1.2-1.5,4.7c-2.2,4.3-5.7,11.4,0.1,18.5l-0.2,3.3l-4.6,0c-2.4,0-4.4,2-4.4,4.4c0,2.4,2,4.4,4.4,4.4h4.1l-0.2,3.6
		l-3.9,0c-2.4,0-4.4,2-4.4,4.4c0,2.4,2,4.4,4.4,4.4l3.4,0l-2.6,44.3c-7.8,2.4-13.9,7.7-19.3,13.1c-11.2,11.2-16.1,27.4-13.1,43.1
		c0.3,1.3,1,2.3,2.1,3c1.1,0.6,2.4,0.8,3.6,0.4c4.8-1.7,10-0.5,13.5,3.1c5.1,5.1,5.1,13.4,0,18.6c-4.5,4.5-11.6,5.1-16.8,1.4
		c-1-0.7-2.4-1-3.6-0.7c-1.2,0.3-2.3,1.2-2.8,2.4c-10.6,21.8-6.2,47.9,10.9,65c9,9,20.4,14.3,32.1,16l3.8,18.9
		c0.4,2,2.2,3.5,4.3,3.5c1.2,0,2.3-0.5,3.1-1.3c0.6-0.6,1-1.4,1.2-2.2l3.8-18.9c11.8-1.7,23.1-7,32.1-16
		c17.1-17.1,21.5-43.2,10.9-65C228.3,226,227.2,225.1,226,224.8z M175.7,77h4.1l5.7,96.4H170L175.7,77z M211.7,286
		c-6.8,6.8-15.3,11.2-24.1,13l6.7-33.8c0.3-1.3-0.1-2.6-0.9-3.6c-0.8-1-2.1-1.6-3.4-1.6h-24.8c-1.3,0-2.6,0.7-3.4,1.6
		c-0.8,1-1.2,2.4-0.9,3.6l6.7,33.8c-8.8-1.8-17.3-6.2-24.1-13c-13.4-13.4-17.5-33.3-11-50.8c7.9,3.1,17.1,1.4,23.4-4.9
		c4.3-4.3,6.4-9.8,6.4-15.5c0-5.6-2.1-11.2-6.4-15.5c-4.7-4.7-11-6.9-17.5-6.3c-0.9-11.4,3.1-22.7,11.3-30.8
		c4.3-4.3,8.2-7.7,12.6-9.7l-1.5,24.9c-0.1,1.2,0.3,2.4,1.2,3.3c0.8,0.9,2,1.4,3.2,1.4l24.7,0c1.1,0,2.3-0.5,3.1-1.3
		c0,0,0.1-0.1,0.1-0.1c0.8-0.9,1.2-2.1,1.2-3.3l-1.5-24.9c4.3,2.1,8.3,5.4,12.5,9.7c8.1,8.1,12.2,19.4,11.3,30.8
		c-6.4-0.6-12.8,1.6-17.4,6.3c-4.3,4.3-6.4,9.8-6.4,15.5c0,5.6,2.1,11.2,6.4,15.5c6.3,6.3,15.5,8,23.4,4.9
		C229.3,252.7,225.1,272.6,211.7,286z"/>
	<path class="st0" d="M177.7,27.9C177.7,27.9,177.7,27.9,177.7,27.9c10.3,0,20.6,1,30.6,2.9l2.4-12.2c-10.8-2.1-21.8-3.2-32.9-3.2
		c0,0,0,0,0,0c-18.3,0-36.3,2.9-53.5,8.5l3.9,11.8C144.1,30.6,160.8,27.9,177.7,27.9z"/>
	<path class="st0" d="M316.1,85.7l-10,7.3c16.1,21.9,26.3,47.7,29.6,74.7l12.3-1.5C344.5,137.1,333.5,109.3,316.1,85.7z"/>
	<path class="st0" d="M230.2,23.7l-3.8,11.8c25.8,8.3,49.2,23.2,67.8,43.1l9.1-8.5C283.3,48.7,258,32.6,230.2,23.7z"/>
</g>
</svg>
