<?xml version="1.0" encoding="utf-8"?>
<!-- Generator: Adobe Illustrator 22.0.1, SVG Export Plug-In . SVG Version: 6.00 Build 0)  -->
<svg version="1.1" id="Layer_1" xmlns="http://www.w3.org/2000/svg" xmlns:xlink="http://www.w3.org/1999/xlink" x="0px" y="0px"
	 viewBox="0 0 36 36" style="enable-background:new 0 0 36 36;" xml:space="preserve">
<style type="text/css">
	.st0{fill:#507CBD;}
</style>
<path class="st0" d="M18,1C8.6,1,1,8.6,1,18c0,9.4,7.6,17,17,17c9.4,0,17-7.6,17-17C35,8.6,27.4,1,18,1z M21.8,15.1l-0.2,2.5H19v8.8
	h-3.3v-8.8h-1.8v-2.5h1.8v-1.7c0-0.8,0-1.9,0.6-2.6c0.6-0.8,1.4-1.3,2.7-1.3c2.2,0,3.2,0.3,3.2,0.3l-0.4,2.6c0,0-0.7-0.2-1.4-0.2
	c-0.7,0-1.3,0.2-1.3,0.9v2H21.8z"/>
</svg>
