<?xml version="1.0" encoding="utf-8"?>
<!-- Generator: Adobe Illustrator 22.0.1, SVG Export Plug-In . SVG Version: 6.00 Build 0)  -->
<svg version="1.1" id="Layer_1" xmlns="http://www.w3.org/2000/svg" xmlns:xlink="http://www.w3.org/1999/xlink" x="0px" y="0px"
	 viewBox="0 0 350 350" style="enable-background:new 0 0 350 350;" xml:space="preserve">
<style type="text/css">
	.st0{fill:#FFF8DB;}
</style>
<g>
	<path class="st0" d="M187,219.6v-16.7v-6.2c0-2.4-2-4.4-4.4-4.4c-2.4,0-4.4,2-4.4,4.4l0,24.7c0,1.1,0.5,2.3,1.3,3.1l6.2,6.2
		c1.7,1.7,4.5,1.7,6.2,0c1.7-1.7,1.7-4.5,0-6.2L187,219.6z"/>
	<path class="st0" d="M170.3,192.3c-2.4,0-4.4,2-4.4,4.4l0,6.2l0,16.7l-4.9,4.9c-1.7,1.7-1.7,4.5,0,6.2c1.7,1.7,4.5,1.7,6.2,0
		l6.2-6.2c0.8-0.8,1.3-2,1.3-3.1l0-24.7l0,0C174.7,194.2,172.7,192.3,170.3,192.3z"/>
	<path class="st0" d="M224.7,212.8c-1.2-0.3-2.6-0.1-3.6,0.7c-5.2,3.7-12.3,3.1-16.8-1.4c-5.1-5.1-5.1-13.4,0-18.6
		c3.5-3.5,8.8-4.7,13.6-3c1.2,0.4,2.5,0.3,3.6-0.4c1.1-0.6,1.9-1.7,2.1-3c3-15.8-1.8-31.9-13.1-43.1c-5.4-5.4-11.5-10.7-19.3-13.1
		l-2.6-44.4l3.4,0c1.2,0,2.3-0.5,3.1-1.3c0.8-0.8,1.3-1.9,1.3-3.1c0-2.4-2-4.3-4.4-4.4h-3.9l-0.2-3.6l4.1,0c1.2,0,2.3-0.5,3.1-1.3
		c0.8-0.8,1.3-1.9,1.3-3.1c0-2.4-2-4.4-4.4-4.4h-4.6l-0.2-3.4c6.1-7.5,2.4-14.6,0.1-19c-0.6-1.3-1.8-3.4-1.5-4.2
		c1.3-1.3,1.6-3.1,1-4.8c-0.7-1.6-2.3-2.7-4-2.7h-12.4c-1.8,0-3.4,1.1-4.1,2.7c-0.7,1.6-0.3,3.5,0.9,4.7c0.5,0.5,0.3,1.2-1.4,4.7
		c-2.2,4.3-5.7,11.4,0.1,18.5l-0.2,3.3l-4.6,0c-2.4,0-4.4,2-4.4,4.4c0,2.4,1.9,4.4,4.4,4.4h4.1l-0.2,3.6H161c-2.4,0-4.4,2-4.4,4.4
		c0,2.4,2,4.4,4.4,4.4h3.4l-2.6,44.4c-7.8,2.4-13.9,7.7-19.3,13.1c-11.2,11.2-16.1,27.3-13.1,43.1c0.2,1.2,1,2.3,2.1,3
		c1.1,0.6,2.4,0.8,3.6,0.3c4.8-1.6,10-0.5,13.6,3.1c5.1,5.1,5.1,13.4,0,18.6c-4.5,4.5-11.6,5.1-16.8,1.4c-1-0.7-2.4-1-3.6-0.7
		c-1.2,0.3-2.3,1.2-2.8,2.3c-10.5,21.8-6.2,47.9,10.9,65c9,9,20.4,14.3,32.1,16l3.8,18.9c0.4,2,2.2,3.5,4.3,3.5
		c1.2,0,2.3-0.5,3.1-1.3c0.6-0.6,1-1.4,1.2-2.2l3.8-18.9c11.8-1.7,23.1-6.9,32.1-16c17.1-17.1,21.5-43.2,10.9-65
		C227,214,226,213.2,224.7,212.8z M174.4,65h4.1l5.7,96.4h-15.5L174.4,65z M210.5,273.9c-6.8,6.8-15.3,11.2-24.1,13l6.8-33.8
		c0.3-1.3-0.1-2.6-0.9-3.6c-0.8-1-2.1-1.6-3.4-1.6l-24.7,0c-1.3,0-2.6,0.7-3.4,1.6c-0.8,1-1.1,2.3-0.9,3.6l6.7,33.8
		c-8.8-1.9-17.2-6.2-24.1-13c-13.4-13.4-17.6-33.3-11-50.8c7.9,3.1,17.1,1.4,23.4-4.9c4.3-4.3,6.4-9.9,6.4-15.5s-2.1-11.2-6.4-15.5
		c-4.7-4.7-11-6.9-17.5-6.3c-0.9-11.4,3.2-22.7,11.3-30.8c4.3-4.3,8.3-7.7,12.6-9.7l-1.5,24.9c-0.1,1.2,0.3,2.4,1.2,3.3
		c0.8,0.9,2,1.4,3.2,1.4l24.7,0c1.2,0,2.3-0.5,3.1-1.3c0,0,0.1-0.1,0.1-0.1c0.8-0.9,1.3-2.1,1.2-3.2l-1.5-24.9
		c4.3,2.1,8.3,5.4,12.5,9.7c8.1,8.1,12.2,19.4,11.3,30.8c-6.4-0.6-12.8,1.6-17.5,6.2c-4.3,4.3-6.4,9.9-6.4,15.5
		c0,5.6,2.1,11.2,6.4,15.5c6.2,6.2,15.5,8,23.4,4.8C228,240.7,223.9,260.6,210.5,273.9z"/>
	<path class="st0" d="M346.7,154.2c-3.5-29-14.5-56.9-31.9-80.5l-10,7.3c16.1,21.9,26.3,47.7,29.6,74.7L346.7,154.2z"/>
	<path class="st0" d="M292.9,66.6l9.1-8.5c-20-21.5-45.3-37.5-73-46.5l-3.8,11.8C251,31.7,274.4,46.7,292.9,66.6z"/>
	<path class="st0" d="M176.5,15.9C176.5,15.9,176.5,15.9,176.5,15.9c10.3,0,20.6,1,30.6,2.9l2.4-12.2c-10.8-2.1-21.8-3.2-32.9-3.2
		c0,0,0,0,0,0c-18.3,0-36.3,2.9-53.5,8.5l3.9,11.8C142.8,18.5,159.5,15.9,176.5,15.9z"/>
	<path class="st0" d="M348,174.3l-12.4,0.1l0,0.6c0,27.2-7,54.1-20.2,77.7l10.8,6.1c14.3-25.5,21.8-54.4,21.8-83.8L348,174.3z"/>
	<path class="st0" d="M176.5,334.1c-10.4,0-20.8-1-30.9-3l-2.4,12.2c10.9,2.1,22.1,3.2,33.3,3.2c18.2,0,36-2.8,53.1-8.4l-3.8-11.8
		C209.9,331.5,193.3,334.1,176.5,334.1z"/>
	<path class="st0" d="M243.2,319.5l5.2,11.3c26.5-12.3,49.6-31.3,66.9-55l-10-7.3C289.3,290.5,267.8,308.1,243.2,319.5z"/>
</g>
</svg>
