<?xml version="1.0" encoding="utf-8"?>
<!-- Generator: Adobe Illustrator 22.0.1, SVG Export Plug-In . SVG Version: 6.00 Build 0)  -->
<svg version="1.1" id="Layer_1" xmlns="http://www.w3.org/2000/svg" xmlns:xlink="http://www.w3.org/1999/xlink" x="0px" y="0px"
	 viewBox="0 0 350 35" style="enable-background:new 0 0 350 35;" xml:space="preserve">
<style type="text/css">
	.st0{fill:#63D684;}
</style>
<g>
	<path class="st0" d="M1.2,17.4C1.2,9.1,7,4.7,14.4,4.7c5,0,8.1,2.2,8.1,2.2L22,11.8c0,0-2.9-2.5-7.2-2.5c-3.8,0-7.6,2.6-7.6,8.1
		c0,5.2,3.4,8.2,7.6,8.2c4.1,0,6.5-2.5,6.5-2.5l2.3,4.1c-3,2.3-6,3.1-9.3,3.1C7.1,30.2,1.2,25.7,1.2,17.4z"/>
	<path class="st0" d="M29.1,29.9V5h14.4v4.6h-8.5v4.6h6.2v4.6h-6.2v6.5h11.7l-1.1,4.6H29.1z"/>
	<path class="st0" d="M51.8,29.9V5h6v20.3h9.4l-1.1,4.6H51.8z"/>
	<path class="st0" d="M72.6,29.9V5h6v20.3H88l-1.1,4.6H72.6z"/>
	<path class="st0" d="M104.1,30.2c-7.3,0-13.2-4.7-13.2-12.8c0-8.1,5.8-12.8,13.2-12.8c7.3,0,13.2,4.7,13.2,12.8
		C117.3,25.5,111.4,30.2,104.1,30.2z M104.1,9.3c-3.9,0-7.1,3-7.1,8.1c0,5.2,3.2,8.1,7.1,8.1c3.9,0,7.1-2.9,7.1-8.1
		C111.2,12.3,108,9.3,104.1,9.3z"/>
	<path class="st0" d="M141.3,29.9h-7.1V5h7.1c10.9,0,15.3,5.6,15.3,12.5C156.6,24.3,152.1,29.9,141.3,29.9z M141.7,9.5h-1.5v15.8
		h1.5c6.1,0,9-3.5,9-7.9C150.6,13,147.7,9.5,141.7,9.5z"/>
	<path class="st0" d="M162.8,29.9V5h6v25H162.8z"/>
	<path class="st0" d="M190.7,11.4c-0.9-0.7-3.5-2.2-6.3-2.2c-1.7,0-3.1,0.8-3.1,2.3c0,4.2,11.3,2.7,11.3,11.2c0,4.4-3.3,7.6-9.3,7.6
		c-4,0-7.7-2.2-8.9-3.1l2.5-4.2c0.8,0.6,3.5,2.6,6.4,2.6c2.1,0,3.4-1.2,3.4-2.9c0-4.5-11.4-3.2-11.4-11.3c0-4.3,3.5-6.8,8.4-6.8
		c4.2,0,6.7,1.6,7.3,2L190.7,11.4z"/>
	<path class="st0" d="M197.1,17.4c0-8.3,5.8-12.7,13.2-12.7c5,0,8.1,2.2,8.1,2.2l-0.4,4.9c0,0-2.9-2.5-7.2-2.5
		c-3.8,0-7.6,2.6-7.6,8.1c0,5.2,3.4,8.2,7.6,8.2c4.1,0,6.5-2.5,6.5-2.5l2.3,4.1c-3,2.3-6,3.1-9.3,3.1
		C203,30.2,197.1,25.7,197.1,17.4z"/>
	<path class="st0" d="M236.2,30.2c-7.3,0-13.2-4.7-13.2-12.8c0-8.1,5.8-12.8,13.2-12.8c7.3,0,13.2,4.7,13.2,12.8
		C249.4,25.5,243.5,30.2,236.2,30.2z M236.2,9.3c-3.9,0-7.1,3-7.1,8.1c0,5.2,3.2,8.1,7.1,8.1c3.9,0,7.1-2.9,7.1-8.1
		C243.3,12.3,240.1,9.3,236.2,9.3z"/>
	<path class="st0" d="M264.1,19.7l6-14.8h6.4l-12,25.4h-1L251.6,5h6.3L264.1,19.7z"/>
	<path class="st0" d="M281.1,29.9V5h14.4v4.6H287v4.6h6.2v4.6H287v6.5h11.7l-1.1,4.6H281.1z"/>
	<path class="st0" d="M324.2,30.1c-10.1,0-8-10.3-14.5-10.3v10.1h-6V5h5.9c6.5,0,10.4,2.4,10.4,7.2c0,3.4-2.4,5.2-4.1,5.6
		c3.7,1.1,4,7.6,9.3,7.6L324.2,30.1z M309.7,9.4v6.2c2.7,0,4.6-0.9,4.6-3.2C314.4,10.2,312.4,9.4,309.7,9.4z"/>
	<path class="st0" d="M336.2,15.9l6-10.9h6.6l-9.6,15.7v9.3h-6v-9.1c-2.9-4.6-6.9-11.4-9.7-15.9h6.5L336.2,15.9z"/>
</g>
</svg>
