<?xml version="1.0" encoding="utf-8"?>
<!-- Generator: Adobe Illustrator 22.0.1, SVG Export Plug-In . SVG Version: 6.00 Build 0)  -->
<svg version="1.1" id="Layer_1" xmlns="http://www.w3.org/2000/svg" xmlns:xlink="http://www.w3.org/1999/xlink" x="0px" y="0px"
	 viewBox="0 0 350 350" style="enable-background:new 0 0 350 350;" xml:space="preserve">
<style type="text/css">
	.st0{fill:#3F92BB;}
	.st1{fill:#FFF8DB;}
</style>
<g>
	<g>
		<circle class="st0" cx="175" cy="175" r="171.7"/>
	</g>
	<g>
		<path class="st1" d="M241.5,88.6h-42.2c-10.4,0-18.7,8.3-18.7,18.7v42.2c0,10.4,8.3,18.7,18.7,18.7h42.2
			c10.4,0,18.7-8.3,18.7-18.7v-42.2C260.2,96.9,251.7,88.6,241.5,88.6z M251.9,149.2c0,5.8-4.6,10.4-10.4,10.4h-42.2
			c-5.8,0-10.4-4.6-10.4-10.4v-42c0-5.8,4.6-10.4,10.4-10.4h42.2c5.8,0,10.4,4.5,10.4,10.4V149.2z"/>
		<path class="st1" d="M241.5,181.9h-42.2c-10.4,0-18.7,8.3-18.7,18.7v42.2c0,10.4,8.3,18.7,18.7,18.7h42.2
			c10.4,0,18.7-8.3,18.7-18.7v-42.2C260.2,190.2,251.7,181.9,241.5,181.9z"/>
		<path class="st1" d="M150.7,88.6h-42.2c-10.4,0-18.7,8.3-18.7,18.7v42.2c0,10.4,8.3,18.7,18.7,18.7h42.2
			c10.4,0,18.7-8.3,18.7-18.7v-42.2C169.4,96.9,161.1,88.6,150.7,88.6z M161.1,149.2c0,5.8-4.5,10.4-10.4,10.4h-42.2
			c-5.8,0-10.4-4.6-10.4-10.4v-42c0-5.8,4.6-10.4,10.4-10.4h42.2c5.8,0,10.4,4.5,10.4,10.4V149.2z"/>
		<path class="st1" d="M150.7,181.9h-42.2c-10.4,0-18.7,8.3-18.7,18.7v42.2c0,10.4,8.3,18.7,18.7,18.7h42.2
			c10.4,0,18.7-8.3,18.7-18.7v-42.2C169.4,190.2,161.1,181.9,150.7,181.9z M161.1,242.7c0,5.8-4.5,10.4-10.4,10.4h-42.2
			c-5.8,0-10.4-4.5-10.4-10.4v-42.2c0-5.8,4.6-10.4,10.4-10.4h42.2c5.8,0,10.4,4.6,10.4,10.4V242.7z"/>
	</g>
	<g>
		<path class="st1" d="M251.9,256.4l14.5,25.8l-10.9,6.4l-14.8-26.1l-14.5,19.6v-64.4l51.5,38.6H251.9z"/>
		<path class="st0" d="M255.4,291c-0.2,0-0.4,0-0.6-0.1c-0.6-0.2-1.2-0.6-1.5-1.1l-13-22.8l-12.3,16.7c-0.6,0.8-1.7,1.2-2.7,0.9
			c-1-0.3-1.7-1.3-1.7-2.3v-64.4c0-0.9,0.5-1.8,1.3-2.2c0.8-0.4,1.8-0.3,2.5,0.2l51.5,38.6c0.8,0.6,1.2,1.7,0.8,2.7
			c-0.3,1-1.3,1.7-2.3,1.7H256l12.5,22.2c0.6,1.1,0.3,2.6-0.9,3.3l-10.9,6.4C256.3,290.9,255.9,291,255.4,291z M240.6,260.1
			c0,0,0.1,0,0.1,0c0.8,0.1,1.6,0.5,2,1.2l13.6,24l6.8-4l-13.3-23.7c-0.4-0.7-0.4-1.7,0-2.4c0.4-0.7,1.2-1.2,2.1-1.2h18.5
			l-41.9-31.4v52.2l10.1-13.7C239.1,260.4,239.8,260.1,240.6,260.1z"/>
	</g>
</g>
</svg>
