<?xml version="1.0" encoding="utf-8"?>
<!-- Generator: Adobe Illustrator 22.0.1, SVG Export Plug-In . SVG Version: 6.00 Build 0)  -->
<svg version="1.1" id="Layer_1" xmlns="http://www.w3.org/2000/svg" xmlns:xlink="http://www.w3.org/1999/xlink" x="0px" y="0px"
	 viewBox="0 0 350 350" style="enable-background:new 0 0 350 350;" xml:space="preserve">
<style type="text/css">
	.st0{fill:#3F92BB;}
	.st1{fill:#FFF8DB;}
	.st2{clip-path:url(#SVGID_2_);fill:#FFF8DB;}
	.st3{clip-path:url(#SVGID_2_);}
	.st4{clip-path:url(#SVGID_4_);fill:#FFF8DB;}
	.st5{clip-path:url(#SVGID_4_);}
</style>
<g>
	<g>
		<circle class="st0" cx="175" cy="175" r="171.7"/>
	</g>
	<g>
		<path class="st1" d="M292.2,176.5c-3.2-2.5-7.9-1.8-10.3,1.4l-54.5,67.3c-1.1,1.4-3.1,1.7-4.4,0.5l-23-16.4
			c-3-2.9-7.7-2.8-10.4,0.2c-2.9,3-2.8,7.7,0.2,10.4l31.4,32.3c1.3,1.3,3.1,2,5,2c0.2,0,0.4,0,0.6-0.1c2-0.1,4-1.2,5.3-2.9
			l61.6-84.6C296.1,183.6,295.4,178.9,292.2,176.5z"/>
	</g>
</g>
<g>
	<g>
		<defs>
			
				<rect id="SVGID_1_" x="8.8" y="111.2" transform="matrix(0.5816 -0.8135 0.8135 0.5816 -66.7726 196.5911)" width="297.9" height="104"/>
		</defs>
		<clipPath id="SVGID_2_">
			<use xlink:href="#SVGID_1_"  style="overflow:visible;"/>
		</clipPath>
		<path class="st2" d="M196.1,141.1c2.8-0.2,5.4,0.6,8.1,1.2c0,0,8.5,11,7.1,23.3c-1.3,12.3-4.5,19.3-13.2,25.7
			c-8.7,6.4-9.7,6.4-11.2,8.4c-1.6,2-0.2,4.5-0.2,4.5l-1.4,0.8c0,0-3.2-2.5-4.8-2.7c-1.6-0.2-3,1.7-3,1.7s-1.2-2.4,2.3-6.1
			c2-2.1,7.6-4.9,12.9-9.2c12.7-9.8,14.2-26.8,8.8-38.9C197.8,141.4,196.1,141.1,196.1,141.1L196.1,141.1z"/>
		<path class="st3" d="M196.1,141.1"/>
		<path class="st2" d="M173.2,204.5c-9.6-0.9-13.7,3.4-18.5,16.2c-2.1,5.6-0.6,11.2,3.1,14.7c0,0-3.9,1.9-5.4,4.1
			c-1.6,2.2-3.5,14.1-10.5,22.6c-7,8.5-15.4,15-15.4,15s14.4-0.5,22.6-12.3c8.2-11.8,11.2-24.2,12.2-25.9c1-1.6,2.6-2.8,4.5-2.8
			l-0.1-2c0,0-4.6-1.2-5-4.6C159.3,217,165.2,210.9,173.2,204.5L173.2,204.5z"/>
		<path class="st3" d="M173.2,204.5"/>
		<path class="st2" d="M106.6,218.1l-5.5,7.6l-2.9,9.9c0,0-15.8,22.7-16.3,23.3c-0.5,0.6,0.4,3.5,0.4,3.5l-1.4,2.8l1.3,0.9
			l-9.7,13.3l-0.8-0.6l-2.8,3.9l4.7,3.3l2.8-3.9l-0.8-0.6l9.3-13l1.3,0.9l1.7-2.3c0,0,6.7,5.4,12.5,9c5.8,3.6,14.8,3.9,14.8,3.9
			c-10-4.4-18.6-11.4-26.9-18.7l15.3-21.5l9-6.2l5.2-6.7L106.6,218.1z"/>
		<path class="st3" d="M106.6,218.1"/>
		<path class="st2" d="M106.7,178.5l2.3,3.3c0,0-6,2.9-8.1,1.4c-2.2-1.6-3.3-2.7-3.3-2.7l-1.4,0.5c0,0,0.7,2.1-0.9,4.3
			c-1.6,2.2-19.3,7.3-26.2,20c-6.9,12.7-2.4,36-2.4,36s-13.3-19.1-1.5-38.1c9.1-14.7,22.4-18.5,27.2-19.5c1.7-0.3,1-5.3,1-5.3l4-1.8
			L106.7,178.5z"/>
		<path class="st3" d="M106.7,178.5"/>
	</g>
	<path class="st1" d="M151.1,198.1c-1-0.7-2.2-1.1-3.4-0.8c-0.3,0.1-0.7,0.2-1,0.4c-0.7,0.3-1.1,1-1.4,1.6c-0.4,0.7-0.4,1.7,0,2.4
		c0.4,0.7,1.3,1.1,2.1,1c1-0.1,1.9-0.9,2.1-1.8c0.1-0.3,0.1-0.6,0.1-0.8c0.5,0.4,0.8,1,0.8,1.6c0,0.9-0.6,1.8-1.1,2.5
		c-1.1,1.5-2.3,2.9-3.5,4.3c-2.3,2.8-4.6,5.6-6.5,8.7c-1,1.6-1.8,3.4-2.2,5.3c-0.3,1.3-0.2,2.7,0.5,3.8c0.5,0.8,1.2,1.6,2.1,2.1
		c1.4,0.8,3.3,0.9,4.7,0.1c0.8-0.5,1.6-1.3,1.7-2.2c0.1-1-0.4-2-1.3-2.4c-0.9-0.4-2.1-0.1-2.7,0.7c-0.4,0.4-0.6,1.1-0.4,1.7
		c0,0.1,0.1,0.3,0.2,0.4c-0.5,0.1-1.1-0.1-1.5-0.4c-0.7-0.5-1.2-1.3-1.1-2.1c0.1-0.6,0.5-1.1,0.8-1.6c1.4-2.3,3-4.5,4.5-6.7
		c2-2.8,4.1-5.5,6.1-8.3c1.1-1.6,2-3.3,2.3-5.3c0.1-1.2-0.1-2.5-1-3.4C151.7,198.5,151.4,198.3,151.1,198.1L151.1,198.1z"/>
	<path d="M151.1,198.1"/>
	<path class="st1" d="M127,178.2c-1.1-0.8-2.6-0.9-3.8-0.4c-1.7,0.6-3.1,1.7-4.3,2.9c-1.3,1.3-2.5,2.8-3.8,4.2
		c-2.9,3.1-5.8,6.3-8.9,9.2c-0.5,0.5-1,0.9-1.6,1.3c-0.7,0.3-1.6,0-2.1-0.4c-0.4-0.3-0.8-0.7-0.9-1.2c0-0.1,0-0.2,0-0.4
		c0.6,0.2,1.2,0.2,1.7-0.3c0.9-0.8,1.2-2.3,0.4-3.2c-0.6-0.8-1.8-1.1-2.7-0.6c-0.9,0.4-1.5,1.4-1.8,2.4c-0.3,1.5,0.2,3.1,1.1,4.3
		c0.7,0.8,1.5,1.3,2.5,1.6c0.8,0.3,1.8,0.3,2.6,0.1c1.6-0.4,3-1.3,4.3-2.2c2.7-2,4.9-4.5,7-7c2-2.3,3.8-4.7,5.9-6.9
		c0.6-0.6,1.4-1.2,2.3-1.2c0.5,0,0.9,0.2,1.2,0.5c-1.2,0.1-2.3,1.3-2.2,2.5c0,0.9,0.6,1.8,1.6,2.1c0.9,0.3,2-0.1,2.6-0.8
		c0.5-0.5,1-1.1,1-1.8c0.1-0.5,0.2-0.9,0.1-1.4c-0.2-1.1-0.9-2.1-1.8-2.8C127.1,178.3,127,178.2,127,178.2L127,178.2z"/>
	<path d="M127,178.2"/>
	<path class="st1" d="M148.8,123.9c-9.5,6-15.9,15.6-21.7,25c-0.9,1.4-2.7,1.4-4.2,1.8c-0.2,1.5-0.4,3-0.7,4.6
		c1.8,1.1,3.7,2.8,3.4,5.2c0,2.6-2.1,4.4-2.8,6.7c0,1.3,1.7,0.7,2.2,0.1c2.2-2.5,5.2-5.2,5.2-8.9c-0.1-1.9-0.9-3.8-1.9-5.3
		c4.4-2.5,6-7.6,9.1-11.3c4-5.9,8.5-11.8,15-14.9c9.8-4.6,18.8-3.8,26.8-0.6C170.9,118.9,157.7,118.3,148.8,123.9L148.8,123.9z"/>
	<path class="st1" d="M148.8,123.9"/>
	<g>
		<defs>
			
				<rect id="SVGID_3_" x="8.8" y="111.2" transform="matrix(0.5816 -0.8135 0.8135 0.5816 -66.7726 196.5911)" width="297.9" height="104"/>
		</defs>
		<clipPath id="SVGID_4_">
			<use xlink:href="#SVGID_3_"  style="overflow:visible;"/>
		</clipPath>
		<path class="st4" d="M139.6,178.9c-0.2-0.2-0.5-0.2-0.7,0c-5.4,5.9-10.9,11.7-16.3,17.6c-5.7,7.7-11.2,15.5-16.8,23.3
			c-0.3,1,1,1.8,1.6,1.3c5.3-7.5,10.5-15.1,16-22.5c5.6-6.5,11.5-12.6,17.4-18.8C140.5,179.8,140.1,179.2,139.6,178.9L139.6,178.9z"
			/>
		<path class="st4" d="M142.7,181.1c-0.2-0.2-0.5-0.2-0.7,0c-5.4,5.9-10.9,11.7-16.3,17.6c-5.7,7.7-11.2,15.5-16.8,23.3
			c-0.3,1,0.9,1.8,1.6,1.3c5.3-7.5,10.5-15.1,16-22.5c5.6-6.5,11.5-12.6,17.3-18.8C143.5,181.9,143.1,181.4,142.7,181.1L142.7,181.1
			z"/>
		<path class="st4" d="M145.7,183.3c-0.2-0.2-0.5-0.2-0.7,0c-5.4,5.9-10.9,11.7-16.3,17.6c-5.7,7.7-11.2,15.5-16.8,23.3
			c-0.3,1,0.9,1.8,1.6,1.3c5.3-7.5,10.5-15.1,16-22.5c5.6-6.5,11.5-12.6,17.4-18.8C146.6,184.1,146.1,183.5,145.7,183.3L145.7,183.3
			z"/>
		<path class="st4" d="M148.7,185.5c-0.2-0.2-0.5-0.2-0.7,0c-5.4,5.9-10.9,11.7-16.3,17.6c-5.7,7.7-11.2,15.5-16.8,23.3
			c-0.3,1,1,1.8,1.6,1.3c5.3-7.5,10.5-15.1,16-22.5c5.6-6.5,11.5-12.6,17.4-18.8C149.6,186.3,149.1,185.7,148.7,185.5L148.7,185.5z"
			/>
		<path class="st5" d="M148.7,185.5"/>
		<path class="st4" d="M136.3,179.1l13,10.7c0,0,55.4-66.1,61.5-73c6.1-6.9,22.9-25.4,22.9-25.4s5.1,0.1,5.6-0.4
			c0.5-0.5,6.8-8.2,11.2-12.5c4.4-4.3,9.2-9.3,9.2-9.3s6.1-9.1,6.2-10.5c0.2-1.3-4.2-4.5-5-4.5c-0.8,0-6.2,3.3-6.2,3.3l-1.7-1.2
			c0,0-0.3-1-1.3,0.3c-1,1.3-1.3,1.9-1,2.2l0.5,0.4l-1,1.1l1.6,1.3l-1.8,2.5l1.5,1c0,0,0,1.2-1.2,1.5c-1.3,0.3-9.6,5.7-14.2,10.3
			c-4.6,4.6-6.8,6-6.9,6.7s0.1,0.8,0.1,0.8s-42.3,44.6-47.1,49.7c-4.8,5.1-22.9,22.8-26.7,27.1C151.5,165.2,136.3,179.1,136.3,179.1
			L136.3,179.1z"/>
		<path class="st5" d="M136.3,179.1"/>
	</g>
	
		<rect x="253.7" y="68.6" transform="matrix(0.5816 -0.8135 0.8135 0.5816 46.2098 238.674)" class="st1" width="2.8" height="11.6"/>
	
		<rect x="245.8" y="77.1" transform="matrix(0.5816 -0.8135 0.8135 0.5816 35.9869 235.7725)" class="st1" width="2.8" height="11.6"/>
	<rect x="228.3" y="70" transform="matrix(0.5816 -0.8135 0.8135 0.5816 34.4687 218.518)" class="st1" width="2.8" height="11.6"/>
	
		<rect x="238.3" y="61.1" transform="matrix(0.5816 -0.8135 0.8135 0.5816 45.8583 222.993)" class="st1" width="2.8" height="11.6"/>
	<path class="st1" d="M259.7,73.1l-4.2,5.8l3.1,2.3c1.6,1.1,3.8,0.8,5-0.8c1.1-1.6,0.8-3.8-0.8-5L259.7,73.1z"/>
	<path d="M259.7,73.1"/>
	<path class="st1" d="M251.1,81.3l-4.2,5.8l3.1,2.3c1.6,1.1,3.8,0.8,5-0.8c1.1-1.6,0.8-3.8-0.8-5L251.1,81.3z"/>
	<path d="M251.1,81.3"/>
	<path class="st1" d="M228.5,70.9l-3.8,5.3l-3.1-2.2c-1.6-1.1-2.1-3.3-1-4.7c1-1.5,3.2-1.7,4.8-0.6L228.5,70.9z"/>
	<path class="st1" d="M228.5,70.9"/>
	<path class="st1" d="M238.7,62.1l-3.8,5.3l-3.1-2.2c-1.6-1.1-2.1-3.3-1-4.7c1-1.5,3.2-1.7,4.8-0.6L238.7,62.1z"/>
	<path d="M238.7,62.1"/>
</g>
</svg>
