<?xml version="1.0" encoding="utf-8"?>
<!-- Generator: Adobe Illustrator 22.0.1, SVG Export Plug-In . SVG Version: 6.00 Build 0)  -->
<svg version="1.1" id="Layer_1" xmlns="http://www.w3.org/2000/svg" xmlns:xlink="http://www.w3.org/1999/xlink" x="0px" y="0px"
	 viewBox="0 0 350 350" style="enable-background:new 0 0 350 350;" xml:space="preserve">
<style type="text/css">
	.st0{fill:#3F92BB;}
	.st1{fill:#FFF8DB;}
</style>
<g>
	<g>
		<circle class="st0" cx="175" cy="175" r="171.7"/>
	</g>
	<path class="st1" d="M280.8,81.3H231c-10,0-18.2,8.2-18.2,18.2v26.9c0,10,8.1,18.2,18.2,18.2h49.8c10,0,18.2-8.2,18.2-18.2V99.5
		C299,89.5,290.8,81.3,280.8,81.3z M268.8,115.5l-21.1,13.4c-0.3,0.2-0.7,0.3-1,0.4c-1.5,0.2-2.9-1-3-2.7c0-0.1,0-0.2,0-0.3V99.5
		c0-1.7,1.2-3,2.8-3c0.5,0,0.9,0.1,1.3,0.4l21.1,13.4c0.4,0.2,0.8,0.6,1,1.1C270.5,112.9,270.1,114.7,268.8,115.5z"/>
	<path class="st1" d="M104.7,229c-8.7-6.9-21.4-7-30.1-0.2c-8.7,6.7-12.3,16.9-7.4,26.5c6.2,12.3,13.8,23.8,20.7,35.7
		c1.1-0.1,2.2-0.2,3.2-0.3c6.9-11.6,14.2-23,20.4-35C116.4,246.2,113.1,235.6,104.7,229z M89.4,261.7c-8.1,0-14.7-6.6-14.7-14.7
		c0-8.1,6.6-14.7,14.7-14.7c8.1,0,14.7,6.6,14.7,14.7C104.1,255.1,97.5,261.7,89.4,261.7z"/>
	<g>
		<g>
			<g>
				<path class="st1" d="M188.5,115.7c-1.5,0-2.9-1.1-3.2-2.7c-0.3-1.8,0.9-3.4,2.6-3.7c3.4-0.6,6.6-1.1,9.6-1.6
					c1.8-0.3,3.4,0.9,3.7,2.7c0.3,1.8-0.9,3.4-2.7,3.7c-2.9,0.5-6.1,1-9.5,1.5C188.8,115.7,188.6,115.7,188.5,115.7z"/>
			</g>
		</g>
		<g>
			<g>
				<path class="st1" d="M156.5,243.3c-1.3,0-2.5-0.7-3-2c-0.7-1.6,0.1-3.5,1.7-4.2c5.9-2.4,11.5-5.6,16.7-9.5
					c1.4-1.1,3.4-0.7,4.5,0.7c1,1.4,0.7,3.4-0.7,4.5c-5.6,4.1-11.7,7.6-18.1,10.2C157.3,243.3,156.9,243.3,156.5,243.3z
					 M186.3,222.5c-0.8,0-1.6-0.3-2.2-0.9c-1.3-1.2-1.4-3.3-0.1-4.6l0.3-0.3c1.6-1.7,5.3-6.4,5.3-13c0-0.8-0.1-1.5-0.2-2.3
					c-0.2-1.8,1-3.4,2.8-3.6c1.8-0.2,3.4,1,3.6,2.8c0.1,1.1,0.2,2.1,0.2,3.2c0,8.9-4.9,15.2-7.1,17.4l-0.3,0.3
					C188,222.2,187.2,222.5,186.3,222.5z M184.9,189.8c-0.8,0-1.6-0.3-2.2-0.9c-0.6-0.6-1.1-1.1-1.7-1.6c-4.1-3.6-8.5-6.6-13.8-9.3
					c-1.6-0.8-2.2-2.8-1.4-4.3c0.8-1.6,2.8-2.2,4.3-1.4c5.8,3,10.6,6.3,15.1,10.2c0.7,0.6,1.3,1.2,2,1.8c1.3,1.2,1.3,3.3,0.1,4.6
					C186.6,189.4,185.8,189.8,184.9,189.8z M153.4,171.5c-0.4,0-0.8-0.1-1.3-0.3c-5.4-2.3-11.1-4.8-16.9-8.4
					c-0.5-0.3-1.1-0.7-1.6-1.1c-1.4-1.1-1.6-3.1-0.6-4.5c1.1-1.4,3.1-1.7,4.5-0.6c0.4,0.3,0.7,0.5,1.1,0.8
					c5.4,3.4,10.8,5.8,15.9,7.9c1.6,0.7,2.4,2.6,1.7,4.2C155.9,170.7,154.7,171.5,153.4,171.5z M127.9,148.1c-1.8,0-3.2-1.4-3.2-3.2
					c0-7.3,3.8-13.7,11.4-19c1.5-1,3.5-0.7,4.5,0.8c1,1.5,0.7,3.5-0.8,4.5c-5.8,4.1-8.7,8.5-8.7,13.6
					C131.1,146.6,129.7,148.1,127.9,148.1z M152.8,124.4c-1.3,0-2.5-0.8-3-2.1c-0.6-1.7,0.2-3.5,1.9-4.1c5.7-2.1,12.1-3.9,19.6-5.6
					c1.7-0.4,3.5,0.7,3.9,2.4c0.4,1.7-0.7,3.5-2.4,3.9c-7.2,1.6-13.5,3.4-18.8,5.4C153.6,124.4,153.2,124.4,152.8,124.4z"/>
			</g>
		</g>
		<g>
			<g>
				<path class="st1" d="M130.8,249.5c-1.7,0-3.1-1.3-3.2-3c-0.1-1.8,1.2-3.3,2.9-3.5c3.1-0.3,6.2-0.7,9.2-1.3
					c1.8-0.3,3.4,0.8,3.8,2.5c0.3,1.7-0.8,3.4-2.5,3.8c-3.3,0.6-6.6,1.1-9.9,1.4C131,249.5,130.9,249.5,130.8,249.5z"/>
			</g>
		</g>
	</g>
</g>
</svg>
