<?xml version="1.0" encoding="utf-8"?>
<!-- Generator: Adobe Illustrator 22.0.1, SVG Export Plug-In . SVG Version: 6.00 Build 0)  -->
<svg version="1.1" id="Layer_1" xmlns="http://www.w3.org/2000/svg" xmlns:xlink="http://www.w3.org/1999/xlink" x="0px" y="0px"
	 viewBox="0 0 350 350" style="enable-background:new 0 0 350 350;" xml:space="preserve">
<style type="text/css">
	.st0{fill:#3F92BB;}
	.st1{fill:#FFF8DB;}
</style>
<g>
	<g>
		<circle class="st0" cx="175" cy="175" r="171.7"/>
	</g>
	<g>
		<path class="st1" d="M147,184.9L128.9,203c-0.8,0.9-1.3,2-1.3,3.2v9.1c0,2.5,2,4.6,4.6,4.6c2.5,0,4.5-2,4.5-4.6v-7.2l12.3-12.3
			l4.6-4.6c1.8-1.8,1.8-4.7,0-6.4C151.7,183.1,148.8,183.1,147,184.9z"/>
		<path class="st1" d="M144.4,175.8c-1.8-1.8-4.7-1.8-6.4,0l-4.6,4.6l-12.3,12.3h-7.2c-2.5,0-4.6,2-4.6,4.6c0,2.5,2,4.5,4.6,4.5h9.1
			c1.2,0,2.4-0.5,3.2-1.3l18.2-18.1C146.1,180.5,146.1,177.6,144.4,175.8z"/>
		<path class="st1" d="M209.3,169.9c0-8-0.6-16.3-4.5-23.8l30.7-34.5l2.5,2.5c0.9,0.9,2.1,1.3,3.2,1.3c1.2,0,2.3-0.5,3.2-1.3
			c1.8-1.8,1.8-4.7,0-6.4l-2.8-2.8l2.5-2.8l3,3c0.9,0.9,2,1.3,3.2,1.3c1.2,0,2.3-0.5,3.2-1.3c1.8-1.8,1.8-4.7,0-6.4l-3.4-3.4
			l2.3-2.6c10-1,12.5-9,14-13.9c0.5-1.4,1.2-3.8,2-4.2c1.9,0,3.5-1.1,4.2-2.8c0.7-1.7,0.3-3.6-1-4.9l-9.1-9.1c-1.3-1.3-3.3-1.6-5-1
			c-1.7,0.7-2.8,2.4-2.8,4.2c0,0.7-0.6,1.1-4.5,2.4c-4.8,1.5-12.5,4.1-13.6,13.7l-2.6,2.3l-3.4-3.4c-1.8-1.8-4.7-1.8-6.4,0
			c-1.8,1.8-1.8,4.7,0,6.4l3,3l-2.8,2.5l-2.8-2.8c-1.8-1.8-4.7-1.8-6.4,0c-1.8,1.8-1.8,4.6,0,6.4l2.5,2.5l-34.5,30.7
			c-7.5-4-15.8-4.6-23.8-4.6c-16.5,0-31.9,8.2-41.3,22c-0.7,1.1-0.9,2.5-0.6,3.7c0.4,1.3,1.2,2.3,2.4,2.9c4.8,2.3,7.7,7,7.7,12.2
			c0,7.5-6.1,13.6-13.6,13.6c-6.7,0-12.3-4.7-13.4-11.3c-0.2-1.3-1-2.5-2.2-3.2c-1.2-0.7-2.5-0.8-3.8-0.4
			c-23.8,8.2-39.7,30.7-39.7,55.7c0,13.3,4.4,25.5,11.8,35.3l-11.1,16.6c-1.2,1.8-0.9,4.2,0.6,5.7c0.9,0.9,2.1,1.3,3.2,1.3
			c0.9,0,1.8-0.2,2.5-0.8l16.6-11.1c9.9,7.4,22.1,11.9,35.3,11.9c25.1,0,47.5-16,55.7-39.7c0.5-1.3,0.3-2.6-0.4-3.8
			c-0.7-1.2-1.8-2-3.2-2.2c-6.6-1.1-11.3-6.8-11.3-13.4c0-7.5,6.1-13.6,13.6-13.6c5.2,0,9.9,3,12.2,7.7c0.6,1.2,1.6,2.1,2.9,2.4
			c1.3,0.3,2.6,0.1,3.7-0.6C201,201.9,209.3,186.4,209.3,169.9z M240.9,85.3l3,3l-66.6,75L166,152L240.9,85.3z M185.8,200.9
			c-4.2-5.2-10.5-8.2-17.4-8.2c-6.3,0-11.9,2.6-16.1,6.7c-4.1,4.1-6.7,9.8-6.7,16c0,9.2,5.5,17.2,13.6,20.8
			c-8.1,17.7-25.8,29.2-45.4,29.2c-10.1,0-19.4-3-27.3-8.1l29.8-19.9c1.1-0.8,1.9-2,2-3.3c0.1-1.4-0.4-2.7-1.3-3.7l-18.1-18.1
			c-1-1-2.4-1.4-3.7-1.3c-1.3,0.1-2.6,0.9-3.3,2l-19.9,29.8c-5.1-7.8-8.1-17.2-8.1-27.3c0-19.6,11.5-37.3,29.2-45.4
			c3.5,8.1,11.6,13.6,20.8,13.6c6.2,0,11.9-2.6,16-6.7c4.1-4.1,6.7-9.8,6.7-16.1c0-6.9-3-13.2-8.2-17.4c7.7-9.1,19-14.4,30.9-14.4
			c6.3,0,11.7,0.4,16.4,2.1l-19.4,17.2c-0.9,0.8-1.5,2-1.5,3.3c0,1.2,0.4,2.5,1.3,3.3l18.1,18.2c0.9,0.8,2,1.3,3.2,1.3
			c0,0,0.1,0,0.1,0c1.3,0,2.5-0.6,3.3-1.5l17.2-19.4c1.7,4.7,2.1,10.1,2.1,16.4C200.2,181.9,194.9,193.1,185.8,200.9z"/>
		<path class="st1" d="M292.2,176.5c-3.2-2.5-7.9-1.8-10.3,1.4l-54.5,67.3c-1.1,1.4-3.1,1.7-4.4,0.5l-23-16.4
			c-3-2.9-7.7-2.8-10.4,0.2c-2.9,3-2.8,7.7,0.2,10.4l31.4,32.3c1.3,1.3,3.1,2,5,2c0.2,0,0.4,0,0.6-0.1c2-0.1,4-1.2,5.3-2.9
			l61.6-84.6C296.1,183.6,295.4,178.9,292.2,176.5z"/>
	</g>
</g>
</svg>
