<?xml version="1.0" encoding="utf-8"?>
<!-- Generator: Adobe Illustrator 22.0.1, SVG Export Plug-In . SVG Version: 6.00 Build 0)  -->
<svg version="1.1" id="Layer_1" xmlns="http://www.w3.org/2000/svg" xmlns:xlink="http://www.w3.org/1999/xlink" x="0px" y="0px"
	 viewBox="0 0 350 350" style="enable-background:new 0 0 350 350;" xml:space="preserve">
<style type="text/css">
	.st0{fill:#3F92BB;}
	.st1{fill:#FFF8DB;}
</style>
<g>
	<g>
		<circle class="st0" cx="175" cy="175" r="171.7"/>
	</g>
	<g>
		<rect x="175" y="215.3" class="st1" width="0" height="0"/>
		<path class="st1" d="M175,226.1c0.1,0,0.2,0,0.3,0c13.3-0.2,23.9-11.1,23.8-24.4v0c-0.1-13.1-10.8-23.8-23.9-23.8
			c-0.1,0-0.1,0-0.2,0l-0.3,0c-13.3,0.2-23.9,11.1-23.8,24.4C151.1,215.5,161.9,226.1,175,226.1z M175,186.5c0.1,0,0.2,0,0.3,0
			c3.9,0.1,7.6,1.7,10.4,4.6c2.7,2.9,4.2,6.6,4.1,10.6c-0.1,8-6.7,14.5-14.6,14.5c-0.1,0-0.1,0-0.2,0l-0.3,0
			c-8.2-0.2-14.6-7-14.4-15.1C160.4,192.9,167,186.5,175,186.5z"/>
		<path class="st1" d="M126.2,220.5c0.9,0.9,2,1.4,3.3,1.4h0c1.2,0,2.4-0.5,3.3-1.4c1.8-1.8,1.8-4.6,0.1-6.5
			c-6.2-6.4-11-14.3-13.8-22.7c-0.4-1.3-1.3-2.2-2.4-2.8c-0.6-0.3-1.3-0.5-2-0.5c-0.5,0-1,0.1-1.5,0.3c-2.4,0.8-3.7,3.5-2.9,5.9
			C113.4,203.9,118.9,213.1,126.2,220.5z"/>
		<path class="st1" d="M190.7,106.3c-0.1,0-0.2-0.1-0.3-0.1c-10.1-2.3-20.7-2.3-30.7,0c-2.5,0.5-4.1,3-3.6,5.5
			c0.5,2.5,3,4.1,5.5,3.6l0.3,0.7c0,0,0,0,0,0l-0.2-0.8c8.7-2,17.8-2,26.5,0c2.5,0.7,5.1-0.8,5.7-3.3c0.3-1.2,0.2-2.4-0.5-3.5
			C192.9,107.4,191.9,106.6,190.7,106.3z"/>
		<path class="st1" d="M70.1,162.2c0,5.2,4.3,9.5,9.5,9.5c0,0,0,0,0,0h60.4c0,0,0,0,0,0c5.2,0,9.5-4.2,9.5-9.5v-15
			c-0.1-11-9.1-19.9-20-19.9c0,0-0.1,0-0.1,0h-5.6c-1.2,0-2.4,0.5-3.2,1.3l-10.8,10.6l-10.8-10.6c-0.9-0.9-2-1.3-3.2-1.3h-5.6
			c0,0-0.1,0-0.1,0c-11,0-20,8.9-20.1,19.9V162.2z M79.4,147.2c0.1-5.9,4.9-10.6,10.8-10.6c0,0,0.1,0,0.1,0H94l11,10.8
			c2.7,2.7,7.2,2.7,9.9,0l11-10.8h3.7c0,0,0.1,0,0.1,0c5.8,0,10.7,4.7,10.8,10.6v15.2h-61V147.2z"/>
		<path class="st1" d="M109.2,123.7c6.4,0.2,12.5-2.1,17.2-6.5c4.7-4.4,7.4-10.4,7.6-16.8c-0.4-12.7-10.6-22.9-23.4-23.3
			c-0.2,0-0.5,0-0.7,0C97,77,86.2,87.3,85.8,100.3C86.2,113,96.5,123.3,109.2,123.7z M95.1,100.3c0.3-7.7,6.5-13.9,14.2-14.2
			c8.2-0.3,15,6,15.4,14.2c-0.3,7.7-6.5,14-14.2,14.3c-0.2,0-0.4,0-0.6,0c-3.7,0-7.3-1.4-10-3.9C97,108,95.3,104.3,95.1,100.3
			L95.1,100.3z"/>
		<path class="st1" d="M270.3,171.7c5.2,0,9.5-4.2,9.5-9.5l0.1-15.8c-0.5-10.6-9.3-19.1-20-19.1c-0.1,0-0.1,0-0.2,0h-5.6
			c-1.2,0-2.4,0.5-3.2,1.3l-10.8,10.6l-10.8-10.6c-0.9-0.9-2-1.3-3.2-1.3h-5.6c0,0-0.1,0-0.1,0c-11,0-20,8.9-20.1,19.9v15
			c0,5.2,4.3,9.5,9.5,9.5c0,0,0,0,0,0H270.3C270.2,171.7,270.2,171.7,270.3,171.7z M209.6,162.4v-15.2c0.1-5.9,4.9-10.6,10.8-10.6
			c0,0,0.1,0,0.1,0h3.7l11,10.8c2.7,2.7,7.2,2.7,9.9,0l11-10.8h3.6c0,0,0.1,0,0.1,0c5.8,0,10.7,4.7,10.8,10.6l0.1,15.2H209.6z"/>
		<path class="st1" d="M220.4,221.8C220.4,221.8,220.4,221.8,220.4,221.8L220.4,221.8C220.5,221.8,220.5,221.8,220.4,221.8
			c1.3,0,2.5-0.5,3.3-1.4c7.2-7.4,12.7-16.5,16-26.3c0.4-1.2,0.3-2.4-0.3-3.5c-0.6-1.1-1.5-1.9-2.7-2.3c-1.2-0.4-2.4-0.3-3.5,0.3
			c-1.1,0.6-1.9,1.5-2.3,2.7c-2.8,8.5-7.6,16.3-13.8,22.8c-1.8,1.8-1.8,4.8,0.1,6.6C218.1,221.3,219.2,221.8,220.4,221.8z"/>
		<path class="st1" d="M239.4,123.7c0.2,0,0.5,0,0.7,0c12.9,0,23.7-10.3,24.1-23.4c-0.4-12.7-10.6-22.9-23.4-23.3
			c-6.4-0.2-12.5,2.1-17.2,6.5c-4.7,4.4-7.4,10.4-7.6,16.8C216.4,113,226.7,123.3,239.4,123.7z M225.3,100.3
			c0.3-7.7,6.5-13.9,14.2-14.2c8.2-0.3,15,6.1,15.4,14.2c-0.3,7.7-6.5,14-14.2,14.3c-0.2,0-0.4,0-0.6,0c-3.7,0-7.3-1.4-10-3.9
			C227.2,108,225.5,104.3,225.3,100.3L225.3,100.3z"/>
		<path class="st1" d="M144.7,273C144.7,273,144.8,273,144.7,273h60.5c0,0,0,0,0,0c2.5,0,4.9-1,6.7-2.8c1.8-1.8,2.8-4.2,2.8-6.7v-15
			c-0.1-11-9.1-19.9-20-19.9c0,0-0.1,0-0.1,0H189c-1.2,0-2.4,0.5-3.2,1.3L175,240.6L164.2,230c-0.9-0.9-2-1.3-3.3-1.3h-5.6
			c0,0-0.1,0-0.1,0c-11,0-20,8.9-20.1,19.9v15c0,2.5,1,4.9,2.8,6.7C139.8,272,142.2,273,144.7,273z M144.5,248.6
			c0.1-5.9,4.9-10.6,10.8-10.6c0,0,0.1,0,0.1,0h3.7l11,10.8c2.8,2.7,7.1,2.7,9.9,0l11-10.8h3.7c0,0,0.1,0,0.1,0
			c5.8,0,10.7,4.7,10.7,10.6v15.2h-61V248.6z"/>
	</g>
</g>
</svg>
